HIERARCHY
ROOT SpineBase
{
  OFFSET 0.000000 0.000000 0.000000
  CHANNELS 6 Xposition Yposition Zposition Zrotation Xrotation Yrotation
  JOINT SpineMid
  {
    OFFSET 0.000000 30.101347 0.000000
    CHANNELS 3 Zrotation Xrotation Yrotation
    JOINT SpineShoulder
    {
      OFFSET 0.047857 22.249769 -0.834043
      CHANNELS 3 Zrotation Xrotation Yrotation
      JOINT Neck
      {
        OFFSET 0.029687 7.318836 -0.617700
        CHANNELS 3 Zrotation Xrotation Yrotation
        JOINT Head
        {
          OFFSET 2.665348 13.132765 -0.768002
          CHANNELS 3 Zrotation Xrotation Yrotation
          End Site
          {
            OFFSET 0 0 0
          }
        }
      }
      JOINT ShoulderLeft
      {
        OFFSET -14.540246 -3.787966 -6.503873
        CHANNELS 3 Zrotation Xrotation Yrotation
        JOINT ElbowLeft
        {
          OFFSET -1.398208 -25.000459 -1.524677
          CHANNELS 3 Zrotation Xrotation Yrotation
          JOINT WristLeft
          {
            OFFSET 1.192357 -21.844871 -7.880120
            CHANNELS 3 Zrotation Xrotation Yrotation
            JOINT HandLeft
            {
              OFFSET 1.325853 -3.125572 -0.395638
              CHANNELS 3 Zrotation Xrotation Yrotation
              JOINT HandTipLeft
              {
                OFFSET -0.699189 -6.968440 -1.435359
                CHANNELS 3 Zrotation Xrotation Yrotation
                End Site
                {
                  OFFSET 0 0 0
                }
              }
              JOINT ThumbLeft
              {
                OFFSET -2.256661 -0.947006 -2.746448
                CHANNELS 3 Zrotation Xrotation Yrotation
                End Site
                {
                  OFFSET 0 0 0
                }
              }
            }
          }
        }
      }
      JOINT ShoulderRight
      {
        OFFSET 17.261833 -3.535237 3.589622
        CHANNELS 3 Zrotation Xrotation Yrotation
        JOINT ElbowRight
        {
          OFFSET -6.446083 -21.505826 -23.188583
          CHANNELS 3 Zrotation Xrotation Yrotation
          JOINT WristRight
          {
            OFFSET -6.689545 9.393634 -17.007336
            CHANNELS 3 Zrotation Xrotation Yrotation
            JOINT HandRight
            {
              OFFSET -2.383904 3.353031 -5.864135
              CHANNELS 3 Zrotation Xrotation Yrotation
              JOINT HandTipRight
              {
                OFFSET -4.435419 -3.237546 -2.583764
                CHANNELS 3 Zrotation Xrotation Yrotation
                End Site
                {
                  OFFSET 0 0 0
                }
              }
              JOINT ThumbRight
              {
                OFFSET 0.838888 -6.522309 -0.050497
                CHANNELS 3 Zrotation Xrotation Yrotation
                End Site
                {
                  OFFSET 0 0 0
                }
              }
            }
          }
        }
      }
    }
  }
  JOINT HipLeft
  {
    OFFSET -6.349089 0.481146 -6.002048
    CHANNELS 3 Zrotation Xrotation Yrotation
    JOINT KneeLeft
    {
      OFFSET -4.604530 -29.608080 1.039317
      CHANNELS 3 Zrotation Xrotation Yrotation
      JOINT AnkleLeft
      {
        OFFSET -1.437391 -36.846657 10.505302
        CHANNELS 3 Zrotation Xrotation Yrotation
        JOINT FootLeft
        {
          OFFSET 1.593047 -9.709529 -7.179303
          CHANNELS 3 Zrotation Xrotation Yrotation
          End Site
          {
            OFFSET 0 0 0
          }
        }
      }
    }
  }
  JOINT HipRight
  {
    OFFSET 6.708454 0.204037 -1.520123
    CHANNELS 3 Zrotation Xrotation Yrotation
    JOINT KneeRight
    {
      OFFSET 3.156244 -28.919281 2.320610
      CHANNELS 3 Zrotation Xrotation Yrotation
      JOINT AnkleRight
      {
        OFFSET -4.579441 -39.558483 11.137153
        CHANNELS 3 Zrotation Xrotation Yrotation
        JOINT FootRight
        {
          OFFSET 0.686551 -8.928349 -6.281062
          CHANNELS 3 Zrotation Xrotation Yrotation
          End Site
          {
            OFFSET 0 0 0
          }
        }
      }
    }
  }
}
MOTION
Frames: 15
Frame Time: 0.033333
-17.257282 75.686401 361.511877 0.882682 -3.355774 -23.382039 0.494338 -0.402464 23.457836 -0.045029 -0.135212 0.062011 -6.358010 4.230103 -0.032527 0.000000 0.000000 0.000000 -3.666000 2.152057 0.327379 5.042347 -7.740463 -1.662395 -20.136792 2.407378 3.058237 21.453875 -0.091541 -0.882617 0.000000 0.000000 0.000000 0.000000 0.000000 0.000000 52.429224 -35.059339 -67.273911 -106.845138 -19.491795 57.200340 -2.138293 8.486934 -3.170663 -64.242344 27.096902 -21.225839 0.000000 0.000000 0.000000 0.000000 0.000000 0.000000 -6.220452 -0.001380 23.523217 7.335623 -0.635746 0.763070 -0.943076 4.425745 -1.444301 0.000000 0.000000 0.000000 -5.039320 9.149473 24.526215 1.922166 -9.206115 0.302151 12.912030 27.247643 -11.068557 0.000000 0.000000 0.000000
-17.497111 75.569444 361.550142 0.957366 -3.972029 -23.976100 0.476868 -0.479716 24.062932 -0.071028 -0.115543 0.063085 -7.142071 5.008847 0.034502 0.000000 0.000000 0.000000 -4.329361 2.375495 0.457823 5.297472 -8.233558 -1.680521 -21.556060 5.368535 5.044732 23.696075 -6.419521 -1.245861 0.000000 0.000000 0.000000 0.000000 0.000000 0.000000 47.857848 -47.051614 -56.897997 -124.356325 -7.469933 57.487813 0.661135 -3.668719 -3.609988 -63.308961 27.323943 -16.835301 0.000000 0.000000 0.000000 0.000000 0.000000 0.000000 -7.321726 0.279069 24.144082 8.598510 -0.894648 0.963778 -0.597822 3.423829 -2.380725 0.000000 0.000000 0.000000 -5.774247 11.316173 25.482044 1.844903 -9.964823 0.158062 13.299609 28.013041 -11.524720 0.000000 0.000000 0.000000
-17.703280 75.513948 361.599331 1.014891 -4.611262 -24.435224 0.422477 -0.551894 24.532962 -0.093391 -0.077418 0.062060 -7.529875 5.818231 0.100134 0.000000 0.000000 0.000000 -4.925490 2.896682 0.588823 5.363343 -8.411095 -1.579554 -21.339154 6.754405 5.671162 23.875911 -9.006733 -1.287642 0.000000 0.000000 0.000000 0.000000 0.000000 0.000000 42.407205 -49.501972 -43.336906 -128.713952 5.920385 59.096979 6.277243 -17.395694 -8.816965 -74.101444 17.179698 0.458401 0.000000 0.000000 0.000000 0.000000 0.000000 0.000000 -8.062298 0.857240 24.645862 9.130768 -1.389446 1.107512 -0.749497 3.361025 -2.512523 0.000000 0.000000 0.000000 -6.535561 13.332173 26.302144 2.016868 -9.980613 0.034330 12.646485 24.690742 -11.199045 0.000000 0.000000 0.000000
-17.878861 75.501020 361.585215 1.003967 -5.209331 -24.456862 0.319730 -0.548138 24.559114 -0.110397 -0.007549 0.057172 -7.617726 6.043902 0.206880 0.000000 0.000000 0.000000 -5.230351 3.260422 0.689932 5.183073 -8.418390 -1.442526 -21.490472 8.597478 6.753746 25.312242 -9.880155 -1.962147 0.000000 0.000000 0.000000 0.000000 0.000000 0.000000 38.277514 -49.666337 -33.206810 -127.046636 16.295502 51.964404 2.759703 -6.116155 -11.738476 -65.742195 8.254189 -1.033063 0.000000 0.000000 0.000000 0.000000 0.000000 0.000000 -8.047814 1.852603 24.718807 8.523682 -1.866300 1.128321 0.570216 3.159149 -3.403583 0.000000 0.000000 0.000000 -6.834386 14.387809 26.480567 2.486758 -8.097847 -0.073998 10.328352 17.863321 -9.511181 0.000000 0.000000 0.000000
-17.919485 75.524346 361.521225 0.956145 -5.790630 -24.382591 0.232162 -0.509547 24.485959 -0.113526 0.038477 0.052789 -7.537585 6.857725 0.217370 0.000000 0.000000 0.000000 -5.374891 3.974256 0.763645 4.761576 -8.438917 -1.207508 -19.143718 9.666392 6.507465 23.248896 -11.324230 -1.827723 0.000000 0.000000 0.000000 0.000000 0.000000 0.000000 35.391655 -41.979720 -33.430314 -118.798099 21.023038 39.139011 5.383265 -8.549822 -0.029564 -67.968114 27.972115 0.576341 0.000000 0.000000 0.000000 0.000000 0.000000 0.000000 -7.398732 3.135654 24.680825 6.844970 -2.307083 0.990591 2.762011 3.436081 -4.453082 0.000000 0.000000 0.000000 -7.093432 14.505328 26.404109 3.464383 -4.948031 -0.129357 6.452326 7.553221 -6.891314 0.000000 0.000000 0.000000
-17.815349 75.527685 361.418020 0.967421 -6.363067 -24.348350 0.201351 -0.428091 24.457505 -0.091653 0.072717 0.055061 -7.766246 7.899668 0.199021 0.000000 0.000000 0.000000 -5.626988 4.660891 0.829800 4.417578 -8.745757 -1.031131 -17.908367 11.664657 7.171990 23.082194 -15.422152 -1.827645 0.000000 0.000000 0.000000 0.000000 0.000000 0.000000 35.100564 -34.744838 -37.467165 -108.393523 18.722348 22.889746 4.427762 -6.110081 3.896782 -19.862829 57.371786 -26.829327 0.000000 0.000000 0.000000 0.000000 0.000000 0.000000 -7.124035 3.791415 24.711797 6.055352 -2.221945 0.872726 5.372874 3.608543 -6.170384 0.000000 0.000000 0.000000 -7.391003 13.852252 26.246321 4.871869 -0.806160 -0.167382 4.714131 1.269040 -5.908708 0.000000 0.000000 0.000000
-17.562639 75.513695 361.214088 0.817495 -6.828047 -23.984277 0.128682 -0.296898 24.081587 -0.075702 0.109074 0.048512 -7.431970 8.559269 0.167948 0.000000 0.000000 0.000000 -5.613930 5.292205 0.873327 4.018803 -8.813983 -0.826945 -15.540156 12.538240 6.795313 21.804069 -18.288199 -1.539932 0.000000 0.000000 0.000000 0.000000 0.000000 0.000000 36.580712 -29.761859 -42.150195 -96.441961 8.332584 0.770353 6.383938 -4.469757 12.008715 32.675250 59.385542 -64.225370 0.000000 0.000000 0.000000 0.000000 0.000000 0.000000 -6.774379 4.604845 24.367439 5.139349 -2.358162 0.742525 8.170247 4.136477 -7.788541 0.000000 0.000000 0.000000 -7.665034 12.341772 25.617865 6.841010 3.663411 -0.145174 4.225684 -2.260643 -5.746957 0.000000 0.000000 0.000000
-17.146829 75.472175 360.948558 0.813705 -7.147489 -23.361872 0.118011 -0.099252 23.458022 -0.033425 0.140306 0.052447 -8.132696 8.778413 0.208202 0.000000 0.000000 0.000000 -5.732373 5.699632 0.876876 3.850579 -8.496739 -0.704899 -13.318740 11.993052 5.800932 20.763870 -18.391830 -1.278764 0.000000 0.000000 0.000000 0.000000 0.000000 0.000000 36.636554 -25.012177 -43.849221 -85.832535 -3.371627 -15.088380 6.985895 -1.829331 13.717839 51.596946 59.993958 -77.648421 0.000000 0.000000 0.000000 0.000000 0.000000 0.000000 -6.446017 4.885719 23.789177 4.335402 -2.060360 0.535877 11.778735 5.366118 -9.902469 0.000000 0.000000 0.000000 -7.972987 10.646107 24.712555 8.539422 7.801760 -0.253235 4.123457 -3.783850 -5.601594 0.000000 0.000000 0.000000
-16.605904 75.396902 360.547185 0.551856 -7.371345 -22.286713 -0.003418 0.034779 22.358152 -0.032698 0.175745 0.037759 -7.591208 8.573349 0.230012 0.000000 0.000000 0.000000 -5.428774 5.942955 0.884355 3.988818 -7.967246 -0.673519 -11.039700 12.659734 5.581853 17.956736 -20.829675 -1.117914 0.000000 0.000000 0.000000 0.000000 0.000000 0.000000 37.601238 -19.652519 -46.091707 -77.041662 -19.154402 -27.187336 5.906253 1.030810 12.941560 66.580969 59.998411 -91.304721 0.000000 0.000000 0.000000 0.000000 0.000000 0.000000 -6.080823 5.538519 22.692044 3.535784 -2.454171 0.387938 13.746046 2.281038 -11.223047 0.000000 0.000000 0.000000 -7.864433 9.095311 23.321513 9.525383 11.001069 -0.435600 2.084545 -7.785059 -4.268416 0.000000 0.000000 0.000000
-15.976402 75.283175 360.004346 0.179123 -7.462053 -21.102455 -0.189981 0.089290 21.140438 -0.125570 0.189296 0.012176 -6.529277 8.100715 0.265621 0.000000 0.000000 0.000000 -4.753131 6.073359 0.881607 4.291501 -7.376413 -0.716281 -9.659091 13.042535 5.564394 16.117635 -22.013803 -1.194098 0.000000 0.000000 0.000000 0.000000 0.000000 0.000000 38.878648 -15.171690 -47.861475 -70.385569 -34.761165 -34.100080 3.812393 3.274959 11.321374 78.725008 57.393815 -108.337653 0.000000 0.000000 0.000000 0.000000 0.000000 0.000000 -5.871805 6.130453 21.461733 3.043877 -3.193021 0.278310 16.404737 6.235647 -12.384261 0.000000 0.000000 0.000000 -7.430647 7.676089 21.811802 9.932810 13.359613 -0.598703 2.414418 -5.682022 -3.908384 0.000000 0.000000 0.000000
-15.212178 75.163768 359.412609 -0.197198 -7.432520 -19.912232 -0.348898 0.110930 19.916245 -0.239534 0.201809 -0.013712 -5.087262 7.530909 0.278236 0.000000 0.000000 0.000000 -4.266110 5.924911 0.912666 4.871900 -6.590645 -0.820319 -7.039036 13.779532 5.315746 12.429884 -21.869286 -1.560530 0.000000 0.000000 0.000000 0.000000 0.000000 0.000000 39.833417 -11.878277 -48.729052 -64.919930 -47.271006 -37.012877 2.338906 3.349372 7.996415 84.524621 45.610254 -112.755579 0.000000 0.000000 0.000000 0.000000 0.000000 0.000000 -6.053611 6.672153 20.220147 3.085387 -4.397204 0.262582 16.809672 9.250933 -12.173860 0.000000 0.000000 0.000000 -7.103662 6.475535 20.351454 10.103558 14.232822 -0.585892 0.767437 -5.023370 -2.742090 0.000000 0.000000 0.000000
-14.340937 75.044305 358.712881 -0.556382 -7.315977 -18.738790 -0.419175 0.145334 18.708724 -0.297090 0.214853 -0.034229 -4.188895 6.552774 0.369685 0.000000 0.000000 0.000000 -3.366190 5.635106 0.840301 4.818256 -5.652763 -0.872141 -4.257607 14.586630 5.061864 8.719508 -23.402811 -1.818577 0.000000 0.000000 0.000000 0.000000 0.000000 0.000000 39.913346 -8.597213 -48.412305 -60.806297 -56.086505 -39.943033 0.808974 4.349229 7.355779 85.853452 30.119613 -107.576636 0.000000 0.000000 0.000000 0.000000 0.000000 0.000000 -6.502468 6.982378 19.018976 3.550589 -5.792310 0.283029 15.315953 10.888994 -10.751254 0.000000 0.000000 0.000000 -6.652883 5.621304 18.965206 9.659004 14.576939 -0.609165 -0.148153 -3.370965 -1.610412 0.000000 0.000000 0.000000
-13.638358 74.988692 358.069066 -0.884474 -7.174173 -17.988773 -0.468354 0.163510 17.928058 -0.330912 0.231365 -0.052207 -3.724578 5.719144 0.462594 0.000000 0.000000 0.000000 -2.550296 5.400199 0.771736 4.676286 -5.193505 -0.913112 -2.361157 13.898859 4.300809 6.413809 -20.396136 -1.951118 0.000000 0.000000 0.000000 0.000000 0.000000 0.000000 39.942273 -6.450173 -47.991240 -57.587880 -61.777583 -40.767113 -1.741080 5.629843 7.283109 87.195707 21.763411 -101.646401 0.000000 0.000000 0.000000 0.000000 0.000000 0.000000 -6.706807 6.892337 18.263184 3.983020 -6.511839 0.263715 13.422728 10.904635 -9.197740 0.000000 0.000000 0.000000 -6.360808 5.448122 18.141288 9.164531 13.707349 -0.538054 -0.616932 -1.901870 -0.887041 0.000000 0.000000 0.000000
-12.943194 74.953784 357.392307 -1.219962 -6.961844 -17.380328 -0.491495 0.165477 17.288679 -0.352796 0.247932 -0.069573 -3.396664 4.779752 0.567242 0.000000 0.000000 0.000000 -1.626110 5.084260 0.684281 4.387466 -4.837751 -0.952272 -0.518006 12.587180 3.294484 4.307774 -15.194450 -1.994945 0.000000 0.000000 0.000000 0.000000 0.000000 0.000000 39.659655 -5.020528 -47.047610 -55.343828 -64.639730 -41.262991 -3.584848 6.409062 7.205528 89.414782 14.470726 -95.567910 0.000000 0.000000 0.000000 0.000000 0.000000 0.000000 -6.980083 6.571745 17.656166 4.645273 -7.138741 0.265022 10.310438 10.066820 -6.826929 0.000000 0.000000 0.000000 -6.000923 5.724698 17.540340 8.383060 11.886332 -0.444179 -0.837369 -0.136213 -0.262454 0.000000 0.000000 0.000000
-12.255444 74.939579 356.682602 -1.562988 -6.678500 -16.907582 -0.488834 0.150082 16.785205 -0.362663 0.264539 -0.086296 -3.204806 3.733849 0.680281 0.000000 0.000000 0.000000 -0.595600 4.686782 0.582214 3.953475 -4.585691 -0.988310 1.280894 10.565013 2.032673 2.281432 -7.453401 -1.925801 0.000000 0.000000 0.000000 0.000000 0.000000 0.000000 39.065701 -4.304954 -45.593511 -54.308754 -64.804789 -41.977988 -4.534415 6.691948 7.071457 92.630533 7.714584 -89.205466 0.000000 0.000000 0.000000 0.000000 0.000000 0.000000 -7.326470 6.018185 17.187608 5.537268 -7.671065 0.285717 5.997816 8.189484 -3.669117 0.000000 0.000000 0.000000 -5.555859 6.494113 17.164549 7.319086 9.115346 -0.369186 -0.819979 1.891366 0.256238 0.000000 0.000000 0.000000
